<svg width="118" height="119" viewBox="0 0 118 119" fill="none" xmlns="http://www.w3.org/2000/svg">
<path fill-rule="evenodd" clip-rule="evenodd" d="M88.0806 50.8924C88.0806 50.8924 88.6218 53.6409 88.8065 53.6672C98.7727 55.0884 106.25 60.9018 106.25 71.2609C106.25 82.614 97.047 91.8175 85.6939 91.8175H32.834C21.4809 91.8175 12.2773 82.614 12.2773 71.2609C12.2773 60.9018 19.9398 52.3324 29.906 50.9112C30.0907 50.8848 30.2716 50.8792 30.4472 50.8924C33.095 37.3944 44.9902 27.2109 59.2639 27.2109C73.5376 27.2109 85.4329 37.3944 88.0806 50.8924Z" fill="#F3F3F3"/>
<path d="M34.3887 91.8175C22.1769 91.8175 12.2773 82.1757 12.2773 70.282C12.2773 59.8934 19.8299 51.2228 29.879 49.1947C33.3337 36.5373 45.1805 27.2109 59.2639 27.2109C75.185 27.2109 88.2478 39.1301 89.5588 54.3064C98.9875 55.567 106.25 63.4444 106.25 72.9739C106.25 83.3809 97.5884 91.8175 86.9031 91.8175H34.3887Z" stroke="#231815" stroke-width="5.87332" stroke-linecap="round" stroke-linejoin="round"/>
</svg>
