<svg width="141" height="142" viewBox="0 0 141 142" fill="none" xmlns="http://www.w3.org/2000/svg">
<path fill-rule="evenodd" clip-rule="evenodd" d="M69.0113 24.0072C77.0821 24.0072 83.6247 30.4969 83.6247 38.5023V75.5429C91.589 80.4099 96.9096 89.1418 96.9096 99.118C96.9096 114.401 84.4191 126.79 69.0113 126.79C53.6036 126.79 41.1131 114.401 41.1131 99.118C41.1131 89.1418 46.4337 80.4099 54.398 75.5429V38.5023C54.398 30.4969 60.9406 24.0072 69.0113 24.0072ZM61.0404 79.5668C53.2506 82.6945 47.7555 90.2697 47.7555 99.118C47.7555 110.762 57.2721 120.202 69.0113 120.202C80.7506 120.202 90.2672 110.762 90.2672 99.118C90.2672 90.2697 84.7721 82.6945 76.9823 79.5668V38.5023C76.9823 34.1357 73.4136 30.5959 69.0113 30.5959C64.6091 30.5959 61.0404 34.1357 61.0404 38.5023V79.5668Z" fill="#231815"/>
<path d="M86.6313 98.8921C86.6313 108.623 78.7426 116.512 69.0114 116.512C59.2801 116.512 51.3914 108.623 51.3914 98.8921C51.3914 89.1608 59.2801 81.2721 69.0114 81.2721C78.7426 81.2721 86.6313 89.1608 86.6313 98.8921Z" fill="#00A4EF"/>
<path d="M73.4164 72.4621C73.4164 70.0293 71.4442 68.0571 69.0114 68.0571C66.5786 68.0571 64.6064 70.0293 64.6064 72.4621V93.0187C64.6064 95.4516 66.5786 97.4237 69.0114 97.4237C71.4442 97.4237 73.4164 95.4516 73.4164 93.0187V72.4621Z" fill="#00A4EF"/>
</svg>
