<svg width="142" height="142" viewBox="0 0 142 142" fill="none" xmlns="http://www.w3.org/2000/svg">
<path fill-rule="evenodd" clip-rule="evenodd" d="M69.7956 24.0072C77.8663 24.0072 84.4089 30.4969 84.4089 38.5023V75.5429C92.3732 80.4099 97.6938 89.1418 97.6938 99.118C97.6938 114.401 85.2034 126.79 69.7956 126.79C54.3878 126.79 41.8973 114.401 41.8973 99.118C41.8973 89.1418 47.2179 80.4099 55.1822 75.5429V38.5023C55.1822 30.4969 61.7248 24.0072 69.7956 24.0072ZM61.8246 79.5668C54.0348 82.6945 48.5397 90.2697 48.5397 99.118C48.5397 110.762 58.0563 120.202 69.7956 120.202C81.5348 120.202 91.0514 110.762 91.0514 99.118C91.0514 90.2697 85.5563 82.6945 77.7665 79.5668V38.5023C77.7665 34.1357 74.1978 30.5959 69.7956 30.5959C65.3933 30.5959 61.8246 34.1357 61.8246 38.5023V79.5668Z" fill="#231815"/>
<path fill-rule="evenodd" clip-rule="evenodd" d="M69.7956 38.6905C72.2284 38.6905 74.2006 40.6627 74.2006 43.0955V81.8272C81.8002 83.7832 87.4155 90.6819 87.4155 98.8921C87.4155 108.623 79.5268 116.512 69.7956 116.512C60.0643 116.512 52.1756 108.623 52.1756 98.8921C52.1756 90.6819 57.791 83.7832 65.3906 81.8272V43.0955C65.3906 40.6627 67.3628 38.6905 69.7956 38.6905Z" fill="#F25022"/>
</svg>
