<svg width="142" height="142" viewBox="0 0 142 142" fill="none" xmlns="http://www.w3.org/2000/svg">
<path fill-rule="evenodd" clip-rule="evenodd" d="M69.9035 24.0072C77.9743 24.0072 84.5169 30.4969 84.5169 38.5023V75.5429C92.4812 80.4099 97.8018 89.1418 97.8018 99.118C97.8018 114.401 85.3113 126.79 69.9035 126.79C54.4957 126.79 42.0052 114.401 42.0052 99.118C42.0052 89.1418 47.3259 80.4099 55.2901 75.5429V38.5023C55.2901 30.4969 61.8328 24.0072 69.9035 24.0072ZM61.9326 79.5668C54.1428 82.6945 48.6477 90.2697 48.6477 99.118C48.6477 110.762 58.1643 120.202 69.9035 120.202C81.6428 120.202 91.1594 110.762 91.1594 99.118C91.1594 90.2697 85.6643 82.6945 77.8745 79.5668V38.5023C77.8745 34.1357 74.3058 30.5959 69.9035 30.5959C65.5013 30.5959 61.9326 34.1357 61.9326 38.5023V79.5668Z" fill="#231815"/>
<path fill-rule="evenodd" clip-rule="evenodd" d="M69.9035 53.384C72.3364 53.384 74.3085 55.3562 74.3085 57.789V81.8272C81.9081 83.7832 87.5235 90.6819 87.5235 98.8921C87.5235 108.623 79.6348 116.512 69.9035 116.512C60.1723 116.512 52.2836 108.623 52.2836 98.8921C52.2836 90.6819 57.8989 83.7832 65.4986 81.8272V57.789C65.4986 55.3562 67.4707 53.384 69.9035 53.384Z" fill="#F2994A"/>
</svg>
