<svg width="119" height="119" viewBox="0 0 119 119" fill="none" xmlns="http://www.w3.org/2000/svg">
<path fill-rule="evenodd" clip-rule="evenodd" d="M88.5202 50.8924C88.5202 50.8924 89.0613 53.6409 89.246 53.6672C99.2123 55.0884 106.69 60.9018 106.69 71.2609C106.69 82.614 97.4865 91.8175 86.1334 91.8175H33.2735C21.9204 91.8175 12.7169 82.614 12.7169 71.2609C12.7169 60.9018 20.3793 52.3324 30.3455 50.9112C30.5302 50.8848 30.7111 50.8792 30.8867 50.8924C33.5345 37.3944 45.4297 27.2109 59.7034 27.2109C73.9771 27.2109 85.8724 37.3944 88.5202 50.8924Z" fill="#F3F3F3"/>
<path d="M86.1334 91.8175H87.3426C98.0279 91.8175 106.69 83.3809 106.69 72.9739C106.69 63.4444 99.427 55.567 89.9983 54.3064C88.6873 39.1301 75.6245 27.2109 59.7034 27.2109C45.62 27.2109 33.7732 36.5373 30.3185 49.1947C20.2694 51.2228 12.7169 59.8934 12.7169 70.282C12.7169 81.6666 21.7872 90.988 33.2735 91.7651" stroke="#231815" stroke-width="5.87332" stroke-linecap="round" stroke-linejoin="round"/>
</svg>
