<svg width="118" height="118" viewBox="0 0 118 118" fill="none" xmlns="http://www.w3.org/2000/svg">
<path fill-rule="evenodd" clip-rule="evenodd" d="M87.6411 50.3319C87.6411 50.3319 88.1822 53.0805 88.3669 53.1068C98.3332 54.528 105.811 60.3413 105.811 70.7004C105.811 82.0535 96.6074 91.257 85.2543 91.257H32.3944C21.0413 91.257 11.8378 82.0535 11.8378 70.7004C11.8378 60.3413 19.5002 51.7719 29.4665 50.3507C29.6511 50.3244 29.832 50.3188 30.0076 50.3319C32.6554 36.834 44.5506 26.6505 58.8243 26.6505C73.0981 26.6505 84.9933 36.834 87.6411 50.3319Z" fill="#F3F3F3"/>
<path d="M85.2543 91.257H86.4635C97.1488 91.257 105.811 82.8205 105.811 72.4135C105.811 62.8839 98.5479 55.0066 89.1192 53.746C87.8082 38.5696 74.7454 26.6505 58.8243 26.6505C44.741 26.6505 32.8941 35.9769 29.4395 48.6343C19.3903 50.6624 11.8378 59.3329 11.8378 69.7215C11.8378 81.1062 20.9081 90.4276 32.3944 91.2046" stroke="#231815" stroke-width="5.87332" stroke-linecap="round" stroke-linejoin="round"/>
</svg>
