<svg width="141" height="141" viewBox="0 0 141 141" fill="none" xmlns="http://www.w3.org/2000/svg">
<path fill-rule="evenodd" clip-rule="evenodd" d="M102.809 70.5142C102.809 88.3548 88.3463 102.817 70.5057 102.817C52.6651 102.817 38.2024 88.3548 38.2024 70.5142C38.2024 52.6736 52.6651 38.2109 70.5057 38.2109C88.3463 38.2109 102.809 52.6736 102.809 70.5142Z" stroke="#231815" stroke-width="5.87332"/>
<line x1="126.302" y1="70.5142" x2="114.556" y2="70.5142" stroke="#F25022" stroke-width="5.87332" stroke-linecap="round" stroke-linejoin="round"/>
<line x1="26.4558" y1="70.5142" x2="14.7092" y2="70.5142" stroke="#F25022" stroke-width="5.87332" stroke-linecap="round" stroke-linejoin="round"/>
<line x1="126.302" y1="70.5142" x2="114.556" y2="70.5142" stroke="#231815" stroke-width="5.87332" stroke-linecap="round" stroke-linejoin="round"/>
<line x1="26.4558" y1="70.5142" x2="14.7092" y2="70.5142" stroke="#231815" stroke-width="5.87332" stroke-linecap="round" stroke-linejoin="round"/>
<g clip-path="url(#clip0_15_94)">
<line x1="118.827" y1="98.4125" x2="108.654" y2="92.5391" stroke="#231815" stroke-width="5.87332" stroke-linecap="round" stroke-linejoin="round"/>
</g>
<g clip-path="url(#clip1_15_94)">
<line x1="32.3572" y1="48.4892" x2="22.1843" y2="42.6159" stroke="#231815" stroke-width="5.87332" stroke-linecap="round" stroke-linejoin="round"/>
</g>
<g clip-path="url(#clip2_15_94)">
<line x1="98.4041" y1="118.835" x2="92.5308" y2="108.663" stroke="#231815" stroke-width="5.87332" stroke-linecap="round" stroke-linejoin="round"/>
</g>
<g clip-path="url(#clip3_15_94)">
<line x1="48.4809" y1="32.3658" x2="42.6076" y2="22.1929" stroke="#231815" stroke-width="5.87332" stroke-linecap="round" stroke-linejoin="round"/>
</g>
<g clip-path="url(#clip4_15_94)">
<line x1="70.5057" y1="126.311" x2="70.5057" y2="114.564" stroke="#231815" stroke-width="5.87332" stroke-linecap="round" stroke-linejoin="round"/>
</g>
<g clip-path="url(#clip5_15_94)">
<line x1="70.5057" y1="26.4643" x2="70.5057" y2="14.7176" stroke="#231815" stroke-width="5.87332" stroke-linecap="round" stroke-linejoin="round"/>
</g>
<g clip-path="url(#clip6_15_94)">
<line x1="42.6077" y1="118.835" x2="48.481" y2="108.663" stroke="#231815" stroke-width="5.87332" stroke-linecap="round" stroke-linejoin="round"/>
</g>
<g clip-path="url(#clip7_15_94)">
<line x1="92.5308" y1="32.3658" x2="98.4041" y2="22.1929" stroke="#231815" stroke-width="5.87332" stroke-linecap="round" stroke-linejoin="round"/>
</g>
<g clip-path="url(#clip8_15_94)">
<line x1="22.1846" y1="98.4125" x2="32.3575" y2="92.5392" stroke="#231815" stroke-width="5.87332" stroke-linecap="round" stroke-linejoin="round"/>
</g>
<g clip-path="url(#clip9_15_94)">
<line x1="108.654" y1="48.4892" x2="118.827" y2="42.6159" stroke="#231815" stroke-width="5.87332" stroke-linecap="round" stroke-linejoin="round"/>
</g>
<path d="M99.8723 70.5142C99.8723 86.7329 86.7244 99.8808 70.5056 99.8808C54.2869 99.8808 41.139 86.7329 41.139 70.5142C41.139 54.2955 54.2869 41.1476 70.5056 41.1476C86.7244 41.1476 99.8723 54.2955 99.8723 70.5142Z" fill="#FFB900"/>
<defs>
<clipPath id="clip0_15_94">
<rect x="106.504" y="84.516" width="23.4933" height="11.7466" rx="5.87332" transform="rotate(30 106.504 84.516)" fill="white"/>
</clipPath>
<clipPath id="clip1_15_94">
<rect x="20.0347" y="34.5928" width="23.4933" height="11.7466" rx="5.87332" transform="rotate(30 20.0347 34.5928)" fill="white"/>
</clipPath>
<clipPath id="clip2_15_94">
<rect x="94.6804" y="100.639" width="23.4933" height="11.7466" rx="5.87332" transform="rotate(60 94.6804 100.639)" fill="white"/>
</clipPath>
<clipPath id="clip3_15_94">
<rect x="44.7572" y="14.1699" width="23.4933" height="11.7466" rx="5.87332" transform="rotate(60 44.7572 14.1699)" fill="white"/>
</clipPath>
<clipPath id="clip4_15_94">
<rect x="76.379" y="108.691" width="23.4933" height="11.7466" rx="5.87332" transform="rotate(90 76.379 108.691)" fill="white"/>
</clipPath>
<clipPath id="clip5_15_94">
<rect x="76.379" y="8.8443" width="23.4933" height="11.7466" rx="5.87332" transform="rotate(90 76.379 8.8443)" fill="white"/>
</clipPath>
<clipPath id="clip6_15_94">
<rect x="56.5039" y="106.513" width="23.4933" height="11.7466" rx="5.87332" transform="rotate(120 56.5039 106.513)" fill="white"/>
</clipPath>
<clipPath id="clip7_15_94">
<rect x="106.427" y="20.0432" width="23.4933" height="11.7466" rx="5.87332" transform="rotate(120 106.427 20.0432)" fill="white"/>
</clipPath>
<clipPath id="clip8_15_94">
<rect x="40.3805" y="94.6889" width="23.4933" height="11.7466" rx="5.87332" transform="rotate(150 40.3805 94.6889)" fill="white"/>
</clipPath>
<clipPath id="clip9_15_94">
<rect x="126.85" y="44.7657" width="23.4933" height="11.7466" rx="5.87332" transform="rotate(150 126.85 44.7657)" fill="white"/>
</clipPath>
</defs>
</svg>
