<svg width="142" height="141" viewBox="0 0 142 141" fill="none" xmlns="http://www.w3.org/2000/svg">
<path fill-rule="evenodd" clip-rule="evenodd" d="M99.762 61.8983C99.762 61.8983 100.303 64.6468 100.488 64.6731C110.454 66.0944 117.932 71.9077 117.932 82.2668C117.932 93.6199 108.728 102.823 97.3753 102.823H44.5154C33.1623 102.823 23.9587 93.6199 23.9587 82.2668C23.9587 71.9077 31.6212 63.3383 41.5874 61.9171C41.7721 61.8908 41.953 61.8851 42.1286 61.8983C44.7764 48.4003 56.6716 38.2169 70.9453 38.2169C85.219 38.2169 97.1143 48.4003 99.762 61.8983Z" fill="#F3F3F3"/>
<path d="M97.3753 102.823H98.5845C109.27 102.823 117.932 94.3869 117.932 83.9798C117.932 74.4503 110.669 66.573 101.24 65.3123C99.9292 50.136 86.8664 38.2169 70.9453 38.2169C56.8619 38.2169 45.0151 47.5432 41.5604 60.2006C31.5113 62.2287 23.9587 70.8993 23.9587 81.2879C23.9587 92.6726 33.029 101.994 44.5154 102.771" stroke="#231815" stroke-width="5.87332" stroke-linecap="round" stroke-linejoin="round"/>
<path fill-rule="evenodd" clip-rule="evenodd" d="M79.3618 110.348C77.9572 109.537 77.5856 107.551 78.5317 105.912L85.3839 94.0439C86.33 92.4052 88.2356 91.7342 89.6401 92.5451C91.0447 93.3561 91.4164 95.3419 90.4703 96.9806L83.6181 108.849C82.672 110.488 80.7664 111.159 79.3618 110.348Z" fill="#231815"/>
<path d="M76.7621 97.4999C76.6411 97.1487 76.3409 96.895 75.9836 96.8422L65.0562 95.2222L70.0692 83.6817C70.2031 83.3711 70.1765 83.0107 69.9964 82.7246C69.8172 82.4393 69.5092 82.2668 69.1796 82.2668H53.919C53.3945 82.2668 52.9645 82.6951 52.9458 83.235L52.2431 103.744C52.2254 104.257 52.5856 104.7 53.0777 104.773L60.6749 105.901L50.5101 124.827C50.2719 125.272 50.393 125.829 50.7925 126.128C50.9647 126.256 51.1635 126.317 51.3622 126.317C51.626 126.317 51.8878 126.206 52.0787 125.992L76.5623 98.516C76.8063 98.2419 76.883 97.8511 76.7621 97.4999Z" fill="#FFB900"/>
</svg>
