<svg width="340" height="293" viewBox="0 0 340 293" fill="none" xmlns="http://www.w3.org/2000/svg">
<path d="M49.3695 223.321C49.4265 224.634 49.6324 225.936 49.983 227.2C50.9994 230.928 53.3569 234.132 56.5877 236.175C57.3912 236.661 58.2407 237.065 59.1234 237.379L59.1322 237.382C60.469 237.844 61.871 238.082 63.2831 238.085H79.033C69.8663 238.078 63.7654 228.556 65.3292 219.817C66.1591 214.421 69.8743 209.411 75.0671 207.722C77.8425 206.738 80.8456 207.315 83.6735 206.578C90.1161 205.215 95.7114 200.836 99.1363 195.182L99.14 195.176C101.362 191.498 102.73 187.353 103.139 183.057C103.394 179.972 103.239 176.855 103.627 173.779C104.768 162.299 109.114 151.39 116.152 142.339C123.404 133.066 133.663 126.143 145.085 123.578C148.546 122.796 152.081 122.401 155.626 122.398C153.802 122.421 138.73 122.333 137.326 122.468C134.637 122.613 131.964 122.985 129.335 123.579C112.301 127.363 98.3112 140.789 91.9521 157.086C89.8312 162.429 88.4594 168.049 87.8769 173.78C87.4893 176.854 87.6427 179.973 87.3895 183.057C86.9794 187.354 85.6116 191.499 83.3901 195.177L83.3865 195.183C79.1772 202.221 71.4837 207.151 63.2828 207.081C58.5745 207.041 54.1591 209.867 51.7424 213.908L51.7391 213.914C50.045 216.74 49.2198 220.015 49.3695 223.321Z" fill="#BDBDBD"/>
<path d="M141.776 68.1237C144.849 68.202 147.916 68.4385 150.966 68.8323H166.717C159.613 67.7407 146.889 68.1689 139.594 68.0915C140.322 68.0932 141.05 68.104 141.776 68.1237Z" fill="#BDBDBD"/>
<path d="M171.724 25.9641C172.39 26.006 173.055 26.0667 173.715 26.1652H173.718C178.426 26.8985 182.802 29.0773 186.259 32.4097L190.631 37.1627H206.38L202.009 32.4097C201.188 31.6305 200.318 30.9068 199.404 30.2433C196.452 28.1103 193.048 26.7133 189.467 26.1652H189.464C187.446 25.7108 172.846 26.0045 170.494 25.9267C170.905 25.9271 171.315 25.9456 171.724 25.9641Z" fill="#BDBDBD"/>
<path d="M219.919 92.3762C220.144 92.0903 220.372 91.8143 220.604 91.5484C225.556 86.3917 232.503 83.2097 239.622 83.2374C237.294 83.3019 222.775 83.0585 220.821 83.43C214.778 84.1401 209.1 87.1507 204.854 91.5484C204.372 92.1035 203.918 92.6835 203.494 93.2863C214.754 103.62 223.817 116.184 230.128 130.209C233.597 131.683 236.955 133.416 240.174 135.394H255.924C254.314 134.412 252.675 133.48 251.002 132.616C249.323 131.752 247.615 130.95 245.878 130.211C239.568 116.187 230.504 103.622 219.244 93.2893C219.464 92.9689 219.691 92.6725 219.919 92.3762Z" fill="#BDBDBD"/>
<path d="M224.963 0.140071C234.956 0.639365 243.503 8.44213 246.468 17.9413C247.218 20.2531 247.676 22.6525 247.831 25.0818C247.97 26.5571 247.88 31.5941 247.904 33.1335C250.925 34.278 253.869 35.6212 256.719 37.1545H272.469C269.62 35.6195 266.674 34.2763 263.652 33.1335C263.636 29.1814 263.875 24.0251 262.853 20.2178C260.901 11.7409 254.822 4.14258 246.613 1.31942C244.616 0.62476 242.533 0.223525 240.425 0.127852C240.081 0.108591 239.737 0.0974757 239.392 0.0985869H223.642C224.087 0.0982165 224.524 0.121181 224.963 0.140071Z" fill="#BDBDBD"/>
<path d="M278.024 25.9542C285.109 26.312 291.734 30.3397 295.821 36.1708C302.966 46.1248 302.757 60.804 295.225 70.4832L290.955 75.2613C292.358 78.4604 293.568 81.7431 294.579 85.0913C295.644 85.0646 300.38 85.0853 301.328 85.1324C303.338 85.255 305.323 85.6517 307.229 86.3117C317.71 89.902 324.386 101.061 324.266 112.084C324.389 123.077 317.746 134.213 307.312 137.834C305.458 138.484 303.529 138.884 301.572 139.024C300.405 139.164 295.808 139.048 294.578 139.085C293.563 142.428 292.356 145.707 290.964 148.906C292.339 150.474 295.418 153.713 296.549 155.381C299.499 159.563 301.276 164.481 301.691 169.611C303.075 184.167 292.989 198.823 277.953 199.09C279.984 218.501 275.7 238.602 265.575 255.221C252.336 277.203 228.999 292.189 203.335 292.075C208.715 292.008 221.244 292.334 226.365 291.681C234.517 290.797 242.451 288.454 249.801 284.76C280.75 269.242 297.412 233.401 293.703 199.091C305.682 198.976 315.235 188.997 317.114 177.315V177.307C318.519 169.219 316.512 160.501 311.351 154.129L311.346 154.122C310.824 153.443 307.346 149.629 306.712 148.908C307.416 147.315 308.049 145.685 308.664 144.054C309.253 142.41 309.825 140.761 310.327 139.087C312.915 139.037 317.227 139.269 319.721 138.721C326.438 137.525 332.322 133.041 335.859 127.182C344.153 113.734 339.68 94.1034 325.203 87.2244C322.966 86.1677 320.574 85.4907 318.122 85.2202C316.431 84.9979 312.066 85.1261 310.326 85.0928C309.315 81.7446 308.105 78.4619 306.703 75.2628L310.973 70.4847C320.345 58.4642 318.194 39.1817 305.717 30.247C302.771 28.1163 299.374 26.7178 295.8 26.1638C293.714 25.6945 279.2 25.9986 276.792 25.9175C277.205 25.9179 277.615 25.9353 278.024 25.9542Z" fill="#BDBDBD"/>
<path d="M300.009 139.083H294.579C293.568 142.427 292.361 145.707 290.964 148.904L294.753 153.125C309.208 168.841 300.183 198.63 277.954 199.087C283.412 247.288 247.887 292.613 203.335 292.071H63.2826C-7.64218 289.807 -21.4917 184.974 40.999 157.682C51.1689 102.114 98.868 62.083 150.966 68.8302C139.645 52.0242 149.832 26.0765 170.494 25.9246C176.37 25.9598 182.01 28.2788 186.259 32.4065L190.63 37.1594C193.449 35.6029 196.376 34.2561 199.387 33.1295V27.0862C199.387 12.2062 210.265 0.0990753 223.645 0.0990753C237.025 0.0990753 247.905 12.2062 247.905 27.0862V33.1336C250.931 34.268 253.876 35.6115 256.721 37.1546L260.509 32.9377C265.415 28.2207 271.019 25.9161 276.793 25.9161C298.293 26.0079 308.174 54.2451 295.225 70.4833L290.955 75.2614C292.357 78.4604 293.568 81.7429 294.579 85.091H300.009C332.192 86.5585 332.167 137.628 300.009 139.083ZM228.891 213.923C231.593 197.869 222.056 182.371 207.641 179.374C198.937 177.714 191.683 170.791 188.851 161.309C168.251 99.6898 88.6209 115.95 87.5346 180.135C87.5346 194.968 76.6552 207.076 63.2829 207.076C55.5967 207.076 49.3526 214.03 49.3526 222.584C49.3526 231.128 55.597 238.082 63.2829 238.082H203.334C215.775 237.849 226.581 227.689 228.89 213.923H228.891ZM242.955 132.9C252.85 121.438 252.815 102.951 242.551 91.1736C232.461 80.5777 215.008 80.6395 204.853 91.5477C204.369 92.1021 203.915 92.6822 203.492 93.2856C214.76 103.612 223.824 116.178 230.127 130.208C233.597 131.68 236.955 133.413 240.172 135.393C241.158 134.633 242.088 133.801 242.955 132.902" fill="#BDBDBD"/>
<g style="mix-blend-mode:multiply" opacity="0.4" filter="url(#filter0_f_1_262)">
<path d="M301.412 100.275C315.495 100.918 315.484 123.26 301.412 123.899H285.487C283.966 132.293 281.412 140.638 277.282 147.962L275.359 151.448L286.512 163.86C292.821 170.73 288.865 183.849 279.052 183.908C277.635 183.9 276.236 183.592 274.945 183.001C273.653 182.411 272.497 181.553 271.551 180.481L269.446 178.311L261.958 184.049C277.896 226.586 247.995 277.408 204.734 276.891H64.683C53.9696 276.875 43.7935 273.052 35.2537 265.838C2.88262 238.596 12.7866 180.105 54.5003 169.377C59.7703 112.32 112.626 68.356 167.623 87.9847C169.355 84.346 171.065 79.8019 172.84 76.3376L174.695 72.8977L163.738 60.4824C158.172 53.3627 162.532 41.1603 171.9 41.1066C174.419 41.1258 176.84 42.1021 178.687 43.8439L189.885 56.0947C196.213 51.4103 203.286 47.5641 210.811 45.747L214.435 44.8284V27.0931C214.435 20.5759 219.195 15.2774 225.047 15.2774C230.9 15.2774 235.661 20.5741 235.661 27.0931V44.8173L239.277 45.7433C246.854 47.5952 254 51.4274 260.413 56.091L271.425 43.8309C273.271 42.0951 275.689 41.1235 278.204 41.1066C287.536 41.1463 291.891 53.3327 286.371 60.465L275.358 72.7252L277.281 76.2121C281.411 83.5344 283.968 91.8828 285.487 100.274L301.412 100.275ZM243.713 216.707C248.022 194.23 233.883 168.727 211.547 164.446C207.609 163.693 204.437 160.662 203.2 156.516C194.064 127.143 169.213 107.352 141.346 107.209C103.937 106.638 74.6736 142.599 75.2969 180.061C75.2969 186.598 70.534 191.895 64.6815 191.895C49.482 191.895 37.1152 205.659 37.1152 222.58C37.1152 239.502 49.482 253.262 64.6815 253.262H204.813C224.355 253.116 240.733 236.291 243.713 216.707V216.707ZM253.683 143.978C269.047 126.92 269.023 97.5502 253.746 80.5961C250.099 76.6744 245.707 73.5471 240.835 71.4039C235.964 69.2607 230.715 68.1463 225.407 68.1283C220.099 68.1103 214.843 69.1892 209.957 71.2993C205.072 73.4095 200.659 76.507 196.987 80.4038C193.491 84.3657 190.732 88.9401 188.844 93.9044L187.35 97.8006C202.838 108.97 214.768 124.509 221.665 142.497C228.622 144.823 235.149 148.312 240.977 152.822C245.67 150.654 250.037 147.855 253.682 143.978" fill="#333333"/>
</g>
<path d="M21.1203 224.04C21.509 236.064 29.0149 247.944 40.4299 251.868C42.6017 252.623 44.864 253.076 47.1552 253.215C48.2087 253.294 51.4791 253.252 52.5796 253.262C37.4472 253.299 25.9043 239.683 25.0978 224.861C24.1256 212.51 30.6349 199.544 41.891 194.297C44.4279 193.107 47.1381 192.345 49.9157 192.041C51.2045 191.871 52.5122 191.955 53.8032 191.814C55.8884 191.533 57.8365 190.601 59.3789 189.147C60.1474 188.423 60.8175 187.597 61.3714 186.693L61.3747 186.687C62.3088 185.138 62.8989 183.4 63.1039 181.595C63.2897 179.24 63.191 176.862 63.4059 174.505C63.8843 167.686 65.2335 160.959 67.4196 154.494C76.4853 127.469 100.564 107.056 129.246 107.209C126.553 107.206 123.237 107.168 120.596 107.391C115.002 107.814 109.492 109.014 104.218 110.956C84.0692 118.322 68.7819 136.459 62.6581 157.089L62.6541 157.104C61.1484 162.14 60.1397 167.317 59.643 172.556C59.3752 175.231 59.2871 177.92 59.2572 180.607C59.1519 183.659 57.9375 186.562 55.849 188.756C54.2053 190.477 52.0256 191.566 49.6811 191.838C47.3919 191.93 45.0912 192.002 42.8585 192.582C33.0551 194.87 25.3434 203.204 22.5049 212.862C21.4248 216.481 20.9566 220.261 21.1203 224.04Z" fill="#BDBDBD"/>
<path d="M126.759 83.3015C135.206 83.4497 143.597 85.2683 151.594 87.9856H155.52C147.425 85.2313 138.934 83.4141 130.383 83.2926C129.353 83.2634 126.046 83.2786 124.964 83.2752C125.562 83.2756 126.161 83.2811 126.759 83.3015Z" fill="#BDBDBD"/>
<path d="M156.86 41.16C158.07 41.2909 159.247 41.6453 160.331 42.206C161.022 42.5661 161.673 43.0008 162.272 43.5024C162.277 43.5076 162.284 43.5116 162.289 43.5165C162.414 43.6221 162.537 43.7308 162.658 43.8424L173.856 56.0933H177.782L166.584 43.8424C166.462 43.7291 166.337 43.6202 166.211 43.512C166.206 43.5087 166.202 43.5061 166.198 43.5024C165.604 43.004 164.959 42.5718 164.274 42.213C164.27 42.213 164.265 42.2082 164.261 42.206H164.257C163.838 41.9916 163.406 41.8051 162.963 41.6478L162.957 41.6456C162.505 41.4912 162.042 41.3675 161.573 41.2752C160.373 40.9981 157.133 41.1389 155.872 41.1074C156.201 41.1133 156.532 41.1256 156.86 41.16Z" fill="#BDBDBD"/>
<path d="M178.873 82.9718C176.794 85.7067 175.044 88.6844 173.661 91.8417C173.047 93.2121 171.88 96.3635 171.322 97.801C187.042 109.161 198.516 124.293 205.637 142.497C209.266 143.711 212.785 145.241 216.155 147.071C219.215 148.776 222.154 150.698 224.949 152.822H228.875C226.08 150.697 223.142 148.775 220.081 147.071C216.712 145.24 213.192 143.71 209.563 142.497C202.436 124.281 190.974 109.169 175.248 97.801C176.094 95.6242 177.238 92.4325 178.263 90.3794C180.016 86.7653 182.243 83.4095 184.883 80.4038C185.838 79.4216 186.835 78.4854 187.874 77.5955L187.883 77.5873C191.426 74.5544 195.453 72.1596 199.79 70.5065C204.074 68.8897 208.606 68.0597 213.175 68.0552C211.317 68.0678 208.206 68.0033 206.396 68.1641C202.795 68.4405 199.25 69.2289 195.864 70.5065L195.855 70.5102C190.238 72.6633 185.153 76.0402 180.956 80.4038C180.235 81.2361 179.535 82.0906 178.873 82.9718Z" fill="#BDBDBD"/>
<path d="M209.993 15.3296C214.666 15.7619 218.428 19.7885 219.342 24.3573C219.904 25.7237 219.532 42.966 219.633 44.818C223.588 45.7892 227.793 46.9119 231.511 48.5701C236.039 50.4654 240.363 53.2549 244.385 56.0918H248.311C244.285 53.2523 239.969 50.4673 235.438 48.5701C231.722 46.9137 227.507 45.7862 223.559 44.818V27.0927C223.557 25.8986 223.395 24.7105 223.076 23.5613C222.626 21.9673 221.863 20.4822 220.834 19.1955C220.586 18.8947 220.33 18.6028 220.055 18.3269C218.426 16.6643 216.293 15.6105 214 15.3367C213.264 15.2322 209.818 15.293 209.019 15.2782C209.345 15.2841 209.671 15.2967 209.993 15.3296Z" fill="#BDBDBD"/>
<path d="M246.405 185.42C253.241 205.558 250.662 228.729 239.595 246.815C228.794 264.731 209.626 277.007 188.706 276.891C192.926 276.928 197.429 276.9 201.577 276.164C215.348 273.977 227.996 266.337 237.09 255.681C239.484 252.879 241.652 249.886 243.574 246.731C254.851 228.242 257.259 204.468 249.854 184.049L257.342 178.313H253.415L245.928 184.049C246.092 184.504 246.251 184.961 246.405 185.42Z" fill="#BDBDBD"/>
<path d="M271.042 46.4311C273.584 50.694 273.326 56.4948 270.342 60.4651L259.329 72.7252C261.654 76.8366 263.989 81.2343 265.589 85.6824C267.359 90.302 268.506 95.4068 269.458 100.276H273.385C272.431 95.4009 271.288 90.3075 269.516 85.6824C267.917 81.2377 265.578 76.8322 263.256 72.7263L274.269 60.4662C275.485 58.7888 276.277 56.8342 276.578 54.7732C276.879 52.7123 276.678 50.6079 275.994 48.6439L275.991 48.635C275.215 46.3686 273.771 44.4 271.857 42.9964C271.06 42.4274 270.19 41.9736 269.271 41.6482C267.397 40.8815 264.167 41.1493 262.174 41.1078C265.805 41.0837 269.224 43.2813 271.042 46.4311Z" fill="#BDBDBD"/>
<path d="M270.85 164.292C276.632 171.367 272.666 183.772 263.022 183.907C264.437 183.861 267.584 184.045 268.926 183.702C272.518 182.983 275.444 180.123 276.685 176.672C276.95 175.942 277.151 175.189 277.286 174.422V174.417C277.6 172.644 277.539 170.824 277.106 169.077C276.672 167.331 275.878 165.698 274.774 164.289C274.656 164.143 274.535 164 274.41 163.859L263.256 151.448C265.624 147.268 267.985 142.795 269.601 138.265L269.604 138.259C271.323 133.714 272.448 128.681 273.385 123.899H269.459C268.518 128.691 267.397 133.711 265.675 138.265C264.06 142.793 261.696 147.271 259.33 151.448L270.483 163.859C270.609 164.001 270.731 164.146 270.85 164.292Z" fill="#BDBDBD"/>
<path d="M286.358 100.327C292.218 100.867 296.34 106.867 295.984 112.629C295.858 118.394 291.272 123.961 285.384 123.899C286.331 123.877 289.657 123.965 290.532 123.818C293.672 123.438 296.465 121.407 298.103 118.695L298.105 118.691C299.001 117.188 299.582 115.512 299.813 113.77C300.043 112.027 299.916 110.255 299.442 108.564C298.891 106.59 297.855 104.79 296.431 103.335C295.821 102.723 295.142 102.184 294.41 101.73C294.404 101.726 294.397 101.723 294.391 101.719C293.785 101.353 293.144 101.049 292.478 100.813L292.471 100.81C290.603 100.049 287.371 100.318 285.384 100.275C285.708 100.281 286.036 100.295 286.358 100.327Z" fill="#BDBDBD"/>
<path d="M285.383 100.275C299.465 100.918 299.454 123.26 285.383 123.899H269.458C267.936 132.293 265.383 140.638 261.252 147.962L259.329 151.448L270.482 163.86C276.791 170.73 272.836 183.849 263.022 183.908C261.606 183.9 260.207 183.592 258.915 183.001C257.623 182.411 256.467 181.553 255.521 180.481L253.416 178.311L245.928 184.049C261.866 226.586 231.965 277.408 188.705 276.891H48.6531C37.9401 276.875 27.764 273.052 19.2243 265.838C-13.1472 238.596 -3.24289 180.105 38.4705 169.377C43.7405 112.32 96.5963 68.356 151.593 87.9847C153.326 84.346 155.035 79.8019 156.81 76.3376L158.666 72.8977L147.709 60.4824C142.144 53.3627 146.504 41.1603 155.872 41.1066C158.391 41.1257 160.812 42.102 162.659 43.8439L173.857 56.0947C180.185 51.4103 187.257 47.5641 194.783 45.747L198.407 44.8284V27.0931C198.407 20.5759 203.166 15.2774 209.019 15.2774C214.872 15.2774 219.633 20.5741 219.633 27.0931V44.8173L223.249 45.7433C230.826 47.5952 237.972 51.4274 244.384 56.091L255.396 43.8309C257.243 42.0951 259.661 41.1235 262.175 41.1066C271.508 41.1463 275.863 53.3327 270.343 60.465L259.329 72.7252L261.253 76.2121C265.383 83.5344 267.94 91.8828 269.458 100.274L285.383 100.275ZM227.681 216.707C231.99 194.23 217.852 168.727 195.518 164.446C191.58 163.693 188.408 160.662 187.171 156.516C178.035 127.143 153.184 107.352 125.317 107.209C87.9083 106.638 58.6445 142.599 59.2677 180.061C59.2677 186.598 54.5045 191.895 48.652 191.895C33.4529 191.895 21.0861 205.659 21.0861 222.58C21.0861 239.502 33.4529 253.262 48.652 253.262H188.783C208.324 253.116 224.7 236.291 227.681 216.707ZM237.652 143.978C253.016 126.92 252.992 97.5502 237.715 80.5961C234.068 76.6744 229.676 73.547 224.804 71.4038C219.933 69.2606 214.684 68.1462 209.376 68.1282C204.068 68.1102 198.812 69.189 193.926 71.2992C189.041 73.4094 184.628 76.507 180.956 80.4038C177.46 84.3655 174.701 88.94 172.813 93.9044L171.32 97.8006C186.807 108.971 198.737 124.509 205.635 142.497C212.592 144.823 219.119 148.313 224.946 152.822C229.639 150.654 234.006 147.855 237.651 143.978" fill="#333333"/>
<defs>
<filter id="filter0_f_1_262" x="13.229" y="12.4768" width="301.542" height="267.219" filterUnits="userSpaceOnUse" color-interpolation-filters="sRGB">
<feFlood flood-opacity="0" result="BackgroundImageFix"/>
<feBlend mode="normal" in="SourceGraphic" in2="BackgroundImageFix" result="shape"/>
<feGaussianBlur stdDeviation="1.40032" result="effect1_foregroundBlur_1_262"/>
</filter>
</defs>
</svg>
