<svg width="56" height="100" viewBox="0 0 56 100" fill="none" xmlns="http://www.w3.org/2000/svg">
<path d="M11.9328 71.7744C11.9251 78.066 15.929 84.2171 22.1533 85.8638L22.1616 85.8662C22.6117 85.9838 23.0678 86.0774 23.5278 86.1466H23.5301C24.1185 86.2322 24.7123 86.2756 25.3069 86.2763H29.3369C28.7423 86.2754 28.1485 86.232 27.56 86.1466H27.558C23.7737 85.6068 20.3883 83.2284 18.3649 80.0157C14.4967 74.0115 15.3562 65.5696 20.5437 60.6069C21.515 59.5432 22.1399 58.2093 22.3355 56.7822C22.3823 56.4471 22.4068 56.1092 22.4088 55.7708V22.1476C22.4094 21.9306 22.4173 21.7143 22.4324 21.4985C22.4866 20.7383 22.6396 19.9883 22.8876 19.2675C23.8821 16.2885 26.6688 13.9439 29.8801 13.9693C29.0744 13.9933 25.5387 13.9006 24.8152 14.048C23.123 14.2991 21.5665 15.2158 20.4499 16.5014C20.0312 16.9829 19.6696 17.5112 19.3724 18.0758C18.9564 18.8694 18.6661 19.7229 18.512 20.6056C18.156 21.288 18.5622 55.7964 18.3055 56.7819C18.1095 58.2089 17.4847 59.5427 16.5137 60.6066C13.5154 63.4844 11.8792 67.6341 11.9328 71.7744Z" fill="#BDBDBD"/>
<path d="M36.1575 43.2383C36.0776 40.5677 34.3882 37.9241 31.8094 37.0527L31.8042 37.051C31.2933 36.8762 30.7602 36.7753 30.2208 36.7512C30.1329 36.7464 30.0449 36.7435 29.9567 36.7439H25.9267C28.6211 36.7186 30.9693 38.7238 31.7659 41.2341C31.9758 41.8741 32.097 42.5398 32.1259 43.2127C32.1306 43.3198 32.1334 43.4271 32.1334 43.5358V62.6511C35.9482 65.9041 37.0772 71.6329 35.0273 76.1671C33.4613 79.765 29.9232 82.4401 25.9267 82.4137C27.2384 82.3771 30.5126 82.5349 31.7523 82.239C33.8916 81.8235 35.8404 80.6265 37.2647 78.9876C41.3753 74.2942 40.9134 66.7295 36.1632 62.6511V43.5358C36.1631 43.4358 36.1612 43.3366 36.1575 43.2383Z" fill="#BDBDBD"/>
<path d="M55.813 71.4729C55.8503 64.9818 53.7903 58.4646 49.8414 53.2934V22.1476C49.8414 21.9161 49.8383 21.6863 49.8304 21.4557C49.8146 20.8757 49.7767 20.2969 49.717 19.7192C49.5075 17.6362 49.0171 15.5912 48.2588 13.6398C46.1031 8.0379 41.5673 3.27695 35.8276 1.35107C34.5527 0.918753 33.234 0.628357 31.8954 0.485148C30.5387 0.310754 27.3199 0.405072 25.9267 0.382609C34.4099 0.359586 41.5979 6.29562 44.4052 14.1085C45.0954 16.0076 45.5356 17.9884 45.7147 20.0011C45.7625 20.5409 45.7927 21.082 45.8054 21.6244C45.8091 21.7984 45.8115 21.9728 45.8115 22.1478V53.2936C52.7803 62.3929 53.7015 75.4448 48.2771 85.5104C43.9076 93.7563 35.5141 99.5517 26.0386 99.5245C27.7501 99.5075 30.9041 99.5972 32.5554 99.3921C34.4613 99.1905 36.3356 98.7569 38.1365 98.1009C45.7757 95.3523 51.6585 88.7355 54.2144 81.1089C55.2628 78.004 55.8027 74.75 55.813 71.4729Z" fill="#BDBDBD"/>
<path d="M32.1333 62.6511C39.5395 68.9102 35.7136 82.3124 25.9264 82.4137C16.1263 82.3085 12.3234 68.8993 19.7216 62.6511V43.5357C19.7216 39.7909 22.5048 36.7438 25.9266 36.7438C29.3502 36.7438 32.1333 39.7909 32.1333 43.5357V62.6511Z" fill="#BDBDBD"/>
<path d="M45.8114 53.2934C59.4752 70.8369 48.2772 99.4506 26.0385 99.5244C3.16957 98.9573 -7.21385 70.6821 6.04349 53.3036V22.1476C6.04349 10.1455 14.9624 0.382538 25.9266 0.382538C36.8908 0.382538 45.8114 10.1455 45.8114 22.1476V53.2934ZM36.5464 80.2854C40.5783 74.4839 40.0977 66.1435 35.1949 60.9584C34.0024 59.6831 33.3249 57.9234 33.3205 56.1171V22.1476C33.3205 17.6375 29.9684 13.9693 25.8493 13.9693C21.7302 13.9693 18.3779 17.6375 18.3779 22.1476V55.7705C18.3721 57.5844 17.6916 59.3433 16.5129 60.607C7.57317 69.0855 12.4384 86.0366 25.3061 86.2768C28.5744 86.2768 31.7218 84.9665 34.1709 82.5932L36.5459 80.2855" fill="#BDBDBD"/>
<g style="mix-blend-mode:multiply" opacity="0.4" filter="url(#filter0_f_1_254)">
<path d="M43.0543 55.1002C55.3216 69.8118 46.6108 95.439 26.4688 95.7032C6.02286 95.0472 -2.60591 69.5981 9.96373 54.7239V22.1472C9.96373 12.2527 17.3179 4.20279 26.3568 4.20279C35.3957 4.20279 42.7507 12.2527 42.7507 22.1472V54.7285L43.0543 55.1002ZM38.46 84.2517C44.9041 76.9499 44.7209 65.2711 38.0521 58.2151C37.5299 57.6375 37.2407 56.8865 37.2405 56.1078V22.1473C37.2405 15.531 32.3237 10.1479 26.2785 10.1479C20.2333 10.1479 15.3171 15.531 15.3171 22.1473V55.7707C15.3165 56.5397 15.0331 57.2816 14.5209 57.8551C7.60256 64.3271 7.00295 76.6597 13.1165 83.8857C18.385 90.6061 28.1259 92.1226 34.9344 87.1064V87.5316C35.9646 86.6155 37.5786 85.2954 38.4599 84.2517" fill="#333333"/>
<path d="M29.669 65.1141C35.3925 68.7529 33.2213 78.4848 26.3567 78.5926C19.103 78.3472 17.2822 68.1468 23.6415 64.7373V43.5363C23.6415 41.8972 24.8594 40.5635 26.3568 40.5635C27.8542 40.5635 29.0729 41.8972 29.0729 43.5363L29.0729 64.7373L29.669 65.1141Z" fill="#333333"/>
</g>
<path d="M4.77014 71.8058C4.76753 78.949 8.8546 86.0279 15.5422 88.8506C16.7748 89.3725 18.0684 89.7365 19.3923 89.9338L19.3953 89.9342C20.1368 90.0423 20.8851 90.097 21.6344 90.0978H22.6391C21.8898 90.0968 21.1415 90.0421 20.3999 89.9342L20.3971 89.9338C15.4165 89.2254 11.0215 85.9979 8.49305 81.6973C4.01584 74.2494 5.12818 63.9348 11.4241 57.8553C11.821 57.4127 12.0821 56.8653 12.1765 56.2783C12.2046 56.1106 12.2193 55.9408 12.2203 55.7707V22.1474C12.2203 21.963 12.2255 21.7807 12.2323 21.5974C12.271 20.6437 12.4149 19.6972 12.6616 18.7751C13.9056 13.9934 18.1105 10.1268 23.1815 10.1479C22.2465 10.1418 21.2113 10.1333 20.2979 10.325C17.3003 10.8801 14.6774 12.8558 13.0959 15.434C11.8589 17.4542 11.2079 19.7785 11.2157 22.1474V55.7707C11.2142 55.9557 11.197 56.1402 11.1646 56.3223C11.0641 56.8928 10.806 57.4238 10.4195 57.8553C6.69532 61.4562 4.71254 66.6534 4.77014 71.8058Z" fill="#BDBDBD"/>
<path d="M25.9727 43.3951C25.9463 42.7189 25.7012 42.0696 25.2741 41.5447C25.2132 41.4717 25.1496 41.4007 25.0819 41.3341L25.0792 41.3311C24.7964 41.05 24.4548 40.8352 24.0788 40.7021C24.0759 40.7011 24.073 40.6998 24.0701 40.6988L24.0686 40.6983C23.5907 40.5067 22.7637 40.5744 22.2552 40.5637C22.5339 40.5646 22.8106 40.6113 23.0741 40.7021C24.0109 41.0242 24.696 41.8909 24.8971 42.8488C24.9463 43.0748 24.9714 43.3053 24.9717 43.5365V64.7376H25.9763C25.9728 64.5959 25.9822 43.525 25.9727 43.3951Z" fill="#BDBDBD"/>
<path d="M26.0048 65.4175C28.6206 67.373 29.554 71.1242 28.3691 74.1336C27.4343 76.657 25.0015 78.6163 22.2552 78.5926C22.8875 78.588 23.7284 78.6232 24.3423 78.4941C26.1762 78.1731 27.7825 76.9693 28.7497 75.397C29.3064 74.4854 29.668 73.4682 29.8118 72.4098C29.9555 71.3514 29.8783 70.2747 29.5851 69.2476V69.2469C29.1097 67.5727 28.0523 66.0477 26.5722 65.1142L25.9763 64.7376H24.9717C25.3909 64.9549 25.863 65.3106 26.0048 65.4175Z" fill="#BDBDBD"/>
<path d="M38.7038 16.1274C37.0898 11.0949 33.1969 6.72851 28.142 5.01541C26.9565 4.60994 25.7251 4.35363 24.4763 4.2524C23.8065 4.19107 22.934 4.20328 22.2552 4.2029C29.4835 4.1837 35.5433 9.4023 37.6991 16.1277C38.1721 17.578 38.4704 19.0795 38.5875 20.6005C38.6284 21.115 38.649 21.6308 38.6492 22.1477V54.729C44.0323 61.0486 45.8576 69.9629 43.793 77.9599C41.3055 87.8233 32.8087 95.7273 22.3672 95.7036C30.0819 95.9763 36.8155 92.2694 41.1703 85.9698C47.6197 76.6516 47.0144 63.3665 39.6538 54.729V22.1477C39.653 21.6312 39.6325 21.1154 39.5922 20.6005C39.475 19.0794 39.1768 17.5778 38.7038 16.1274Z" fill="#BDBDBD"/>
<path d="M38.9528 55.1002C51.2201 69.8118 42.5092 95.439 22.3672 95.7032C1.92119 95.0472 -6.70744 69.5981 5.86219 54.7239V22.1472C5.86219 12.2527 13.2164 4.20279 22.2553 4.20279C31.2941 4.20279 38.6491 12.2527 38.6491 22.1472V54.7285L38.9528 55.1002ZM34.3584 84.2517C40.8025 76.9499 40.6194 65.2711 33.9505 58.2151C33.4283 57.6375 33.1391 56.8865 33.139 56.1078V22.1473C33.139 15.531 28.222 10.1479 22.1769 10.1479C16.1317 10.1479 11.2155 15.531 11.2155 22.1473V55.7707C11.2148 56.5397 10.9314 57.2815 10.4193 57.8551C3.50093 64.3271 2.90119 76.6597 9.01488 83.8857C14.2832 90.6061 24.0242 92.1226 30.8328 87.1064C31.869 86.2532 33.4769 85.2954 34.3581 84.2517" fill="#333333"/>
<path d="M25.5674 65.1141C31.2904 68.7529 29.1198 78.4848 22.2551 78.5926C15.0015 78.3472 13.1806 68.1468 19.54 64.7373V43.5363C19.54 41.8972 20.7579 40.5635 22.2553 40.5635C23.7527 40.5635 24.9713 41.8972 24.9713 43.5363V64.7373L25.5674 65.1141Z" fill="#333333"/>
<defs>
<filter id="filter0_f_1_254" x="1.30093" y="1.40216" width="50.2003" height="97.1017" filterUnits="userSpaceOnUse" color-interpolation-filters="sRGB">
<feFlood flood-opacity="0" result="BackgroundImageFix"/>
<feBlend mode="normal" in="SourceGraphic" in2="BackgroundImageFix" result="shape"/>
<feGaussianBlur stdDeviation="1.40032" result="effect1_foregroundBlur_1_254"/>
</filter>
</defs>
</svg>
